<svg width="75" height="75" viewBox="0 0 75 75" fill="none" xmlns="http://www.w3.org/2000/svg">
<path d="M68.8801 7.1312C70.3205 8.57156 71.2337 10.3376 71.6192 12.1923C70.1372 12.5825 68.6788 13.1 67.2669 13.7519C67.1534 12.5107 66.6172 11.2977 65.6654 10.3459C64.7136 9.39412 63.3921 8.81205 62.0887 8.73422C62.7485 7.31442 63.2756 5.85119 63.6719 4.3584C65.5803 4.73119 67.4042 5.65406 68.8807 7.1306L68.8801 7.1312Z" fill="#002E63"/>
<path d="M56.6703 16.4647C56.9363 17.0877 57.3272 17.6704 57.8338 18.177C58.294 18.6373 58.8194 19.0022 59.3773 19.2658C58.2736 20.3804 57.2826 21.5679 56.4111 22.811C55.7748 22.4184 55.1752 21.9419 54.6215 21.3881C54.0268 20.7934 53.5226 20.1444 53.1088 19.4508C54.3603 18.5768 55.5503 17.5787 56.6697 16.4641L56.6703 16.4647Z" fill="#002E63"/>
<path d="M22.6978 19.769C31.8814 25.937 44.0293 25.8311 53.1089 19.4514L53.1096 19.4521C53.5234 20.1456 54.0279 20.7944 54.6226 21.389C55.1762 21.9426 55.7755 22.4183 56.4117 22.8122C50.0272 31.9389 49.96 44.1457 56.2136 53.3317C55.6521 53.7014 55.1172 54.1339 54.6233 54.6278C54.1601 55.091 53.7511 55.5868 53.3989 56.109C44.1792 49.7652 31.8847 49.8214 22.7171 56.2734C22.3426 55.6915 21.897 55.1384 21.3851 54.6265C20.7567 53.998 20.0639 53.4697 19.3294 53.0403C25.7533 43.9938 25.9214 31.8671 19.8252 22.6623C20.3757 22.2975 20.8984 21.8736 21.3844 21.3876C21.8704 20.9016 22.3257 20.3425 22.6978 19.769ZM28.2449 26.2731C27.9936 26.6534 27.6877 27.025 27.363 27.3497C27.0384 27.6744 26.6904 27.959 26.3252 28.2053C30.1893 34.1455 29.9156 42.0827 25.5898 48.0892C26.0644 48.3601 26.5103 48.6962 26.9128 49.0987C27.241 49.4269 27.525 49.7836 27.7622 50.1594C33.8484 45.8132 41.894 45.6091 47.8408 49.6353C48.0783 49.2889 48.3519 48.9585 48.6612 48.6492C48.9911 48.3193 49.3474 48.0293 49.7198 47.7798C45.7524 41.8539 45.962 33.8659 50.2632 27.8075C49.8522 27.5584 49.4662 27.2549 49.1114 26.9001C48.7306 26.5192 48.4094 26.1017 48.1481 25.6537L48.1474 25.653C42.12 29.9504 34.1703 30.1843 28.2449 26.2731Z" fill="#002E63"/>
<path d="M54.62 7.1307C57.0796 4.67111 60.4958 3.74837 63.6714 4.35823C63.2758 5.85042 62.7481 7.31425 62.0883 8.73405C60.5653 8.63811 59.0032 9.17609 57.8343 10.345C56.1793 12 55.7909 14.4415 56.671 16.4639C55.5515 17.5785 54.3616 18.5767 53.11 19.4506C50.7715 15.5765 51.2793 10.4715 54.6206 7.1301L54.62 7.1307Z" fill="#002E63"/>
<path d="M71.6179 12.1922C72.2899 15.4095 71.375 18.8903 68.8768 21.3885C65.4944 24.7709 60.3013 25.2472 56.4116 22.811C57.2831 21.5667 58.2734 20.3797 59.3778 19.2657C61.4339 20.2411 63.9629 19.8787 65.6644 18.1772C66.8773 16.9643 67.4074 15.3328 67.265 13.7525C68.677 13.1005 70.136 12.5837 71.6173 12.1928L71.6179 12.1922Z" fill="#002E63"/>
<path d="M67.2153 62.6622C68.6122 63.3088 70.0525 63.8287 71.5236 64.219C71.0966 65.9284 70.2149 67.5448 68.8777 68.8819C67.5406 70.2191 65.9296 71.0954 64.2227 71.5248C63.8427 70.0531 63.3354 68.6098 62.7015 67.2111C63.7853 67.0223 64.8269 66.5078 65.6653 65.6695C66.5036 64.8311 67.0332 63.7635 67.2147 62.6616L67.2153 62.6622Z" fill="#002E63"/>
<path d="M11.7072 4.50516C15.0541 3.63127 18.7629 4.50532 21.3848 7.12728C24.8193 10.5617 25.2561 15.861 22.6988 19.7681C21.4448 18.9327 20.2469 17.9737 19.119 16.9025C20.262 14.8029 19.9464 12.1183 18.1695 10.3414C16.8401 9.01201 15.0035 8.4999 13.287 8.80505C12.6325 7.41116 12.1078 5.97082 11.7066 4.50455L11.7072 4.50516Z" fill="#002E63"/>
<path d="M16.9855 19.0731C18.0483 20.2034 18.9977 21.4061 19.8252 22.6631C15.9096 25.265 10.5802 24.8379 7.12706 21.3847C4.46348 18.7212 3.6021 14.937 4.54293 11.5497C6.00679 11.9533 7.44169 12.4835 8.83318 13.1403C8.46892 14.9015 8.97078 16.8051 10.3388 18.173C12.1416 19.9759 14.8751 20.2727 16.9855 19.0731Z" fill="#002E63"/>
<path d="M11.7074 4.50522C12.1086 5.97149 12.6333 7.41182 13.2878 8.80572C12.2094 8.99508 11.172 9.50894 10.339 10.3419C9.5061 11.1748 9.0429 12.1133 8.83424 13.1398C7.44276 12.483 6.00785 11.9528 4.54399 11.5492C4.9939 9.9304 5.85517 8.40204 7.12778 7.12942C8.4004 5.8568 10.0265 4.93885 11.708 4.50462L11.7074 4.50522Z" fill="#002E63"/>
<path d="M19.1188 16.9036C20.2461 17.9743 21.4434 18.9339 22.6986 19.7693C22.3259 20.3435 21.8892 20.8839 21.385 21.3881C20.8807 21.8923 20.3765 22.2988 19.8252 22.6631C18.9977 21.4062 18.0483 20.2034 16.9855 19.0731C17.4095 18.8349 17.8106 18.5327 18.1701 18.1732C18.5555 17.7878 18.8709 17.359 19.1188 16.9036Z" fill="#002E63"/>
<path d="M56.2131 53.3311C57.0593 54.5803 58.0238 55.7727 59.1022 56.8922C58.6445 57.1377 58.2205 57.4531 57.8351 57.8385C57.478 58.1956 57.1776 58.5936 56.9406 59.0128C55.829 57.9265 54.6438 56.9596 53.4001 56.108C53.7523 55.5856 54.1606 55.0893 54.6238 54.626C55.1178 54.1321 55.6534 53.7002 56.2143 53.3299L56.2131 53.3311Z" fill="#002E63"/>
<path d="M53.3995 56.1091C54.6438 56.9602 55.8278 57.9271 56.94 59.014C55.732 61.1268 56.0294 63.8657 57.8347 65.671C59.1586 66.9949 60.9874 67.5101 62.7021 67.2128C63.3354 68.6121 63.8427 70.0555 64.2233 71.5266C60.8976 72.3697 57.225 71.4848 54.6236 68.8833C51.1506 65.4103 50.7415 60.0301 53.4001 56.1097L53.3995 56.1091Z" fill="#002E63"/>
<path d="M56.2135 53.3312C60.1261 50.7528 65.4386 51.1824 68.8808 54.6246C71.4798 57.2237 72.3617 60.8933 71.524 64.2197C70.0523 63.8288 68.612 63.3088 67.2157 62.6628C67.4949 60.9613 66.9774 59.1506 65.6661 57.8394C63.8892 56.0624 61.2022 55.7445 59.1021 56.8929C58.0236 55.7734 57.0591 54.5809 56.2129 53.3318L56.2135 53.3312Z" fill="#002E63"/>
<path d="M8.72474 61.8927C8.75795 63.266 9.299 64.6238 10.3437 65.6684C11.2641 66.5889 12.4258 67.1197 13.6309 67.2536C12.9946 68.6656 12.488 70.1192 12.1098 71.6035C10.2841 71.2108 8.54822 70.3024 7.12838 68.8826C5.60238 67.3566 4.66625 65.4638 4.32483 63.4879C5.82484 63.0893 7.29892 62.5573 8.72414 61.8921L8.72474 61.8927Z" fill="#002E63"/>
<path d="M21.3862 54.6251C21.8983 55.1372 22.3434 55.6909 22.718 56.2729C21.4767 57.1414 20.2976 58.13 19.1903 59.2313C18.9321 58.7295 18.5955 58.259 18.1739 57.8374C17.6232 57.2867 16.9839 56.8753 16.3041 56.6093L16.3922 56.5213C17.4863 55.4272 18.464 54.2637 19.33 53.0405C20.0647 53.47 20.7577 53.9978 21.3862 54.6263L21.3862 54.6251Z" fill="#002E63"/>
<path d="M7.12816 54.6227C10.4357 51.3151 15.4684 50.7881 19.3298 53.0404C18.4637 54.2635 17.486 55.427 16.3919 56.5211L16.3039 56.6091C14.3153 55.8147 11.954 56.2266 10.343 57.8376C9.22601 58.9546 8.68502 60.4318 8.72426 61.8932C7.29964 62.5578 5.82496 63.0904 4.32494 63.489C3.78204 60.3647 4.71563 57.0365 7.12816 54.624L7.12816 54.6227Z" fill="#002E63"/>
<path d="M22.7183 56.2732C25.2583 60.1786 24.8102 65.4568 21.3863 68.8808C18.8676 71.3996 15.3476 72.3078 12.1093 71.6039C12.4869 70.1189 12.9941 68.6659 13.6304 67.254C15.2468 67.4374 16.9332 66.9102 18.1744 65.669C19.9151 63.9283 20.2534 61.3137 19.1906 59.2315C20.2973 58.1296 21.4765 57.1423 22.7183 56.2732Z" fill="#002E63"/>
</svg>
