<svg width="75" height="75" viewBox="0 0 75 75" fill="none" xmlns="http://www.w3.org/2000/svg">
<path d="M18.7595 16.0157C18.7037 14.767 18.8982 13.5198 19.3315 12.3474C19.7648 11.175 20.4282 10.1011 21.2826 9.1888C22.137 8.27653 23.1652 7.54432 24.3068 7.03524C25.4483 6.52616 26.6801 6.2505 27.9298 6.22445C29.1794 6.1984 30.4216 6.4225 31.5834 6.88357C32.7451 7.34464 33.803 8.03336 34.6947 8.90924C35.5864 9.78512 36.2939 10.8305 36.7757 11.9838C37.2575 13.1371 37.5038 14.3751 37.5001 15.625V56.25M18.7595 16.0157C16.9226 16.488 15.2173 17.3721 13.7727 18.601C12.3281 19.83 11.1821 21.3715 10.4215 23.1089C9.66085 24.8464 9.30558 26.7341 9.38254 28.6291C9.45951 30.5242 9.9667 32.3769 10.8657 34.0469M18.7595 16.0157C18.8213 17.5273 19.248 19.0016 20.0032 20.3125M10.8657 34.0469C9.28502 35.3311 8.04204 36.982 7.24489 38.8561C6.44774 40.7302 6.12057 42.7706 6.29184 44.8C6.46311 46.8294 7.12763 48.7861 8.2276 50.5001C9.32756 52.2141 10.8297 53.6333 12.6032 54.6344M10.8657 34.0469C11.4374 33.5813 12.0491 33.1703 12.6938 32.8125M12.6032 54.6344C12.3842 56.3289 12.5149 58.0503 12.9872 59.6923C13.4596 61.3343 14.2635 62.862 15.3494 64.1811C16.4353 65.5003 17.7801 66.5828 19.3008 67.3618C20.8214 68.1408 22.4856 68.5998 24.1906 68.7105C25.8956 68.8211 27.6052 68.581 29.2138 68.0051C30.8224 67.4291 32.2958 66.5295 33.5431 65.3618C34.7904 64.1941 35.785 62.7831 36.4656 61.2159C37.1462 59.6487 37.4983 57.9586 37.5001 56.25M12.6032 54.6344C14.479 55.6925 16.5964 56.251 18.7501 56.25M37.5001 56.25H56.2501C57.9077 56.25 59.4974 56.9085 60.6695 58.0806C61.8416 59.2527 62.5001 60.8424 62.5001 62.5V65.625M28.1251 40.625C30.7487 39.7021 33.0397 38.0219 34.7084 35.7969C36.3772 33.572 37.3487 30.9021 37.5001 28.125M37.5001 40.625H50.0001M37.5001 25H62.5001M50.0001 25V15.625C50.0001 13.9674 50.6586 12.3777 51.8307 11.2056C53.0028 10.0335 54.5925 9.37503 56.2501 9.37503M51.5626 40.625C51.5626 41.488 50.863 42.1875 50.0001 42.1875C49.1371 42.1875 48.4376 41.488 48.4376 40.625C48.4376 39.7621 49.1371 39.0625 50.0001 39.0625C50.863 39.0625 51.5626 39.7621 51.5626 40.625ZM57.8126 9.37503C57.8126 10.238 57.113 10.9375 56.2501 10.9375C55.3871 10.9375 54.6876 10.238 54.6876 9.37503C54.6876 8.51209 55.3871 7.81253 56.2501 7.81253C57.113 7.81253 57.8126 8.51209 57.8126 9.37503ZM64.0626 65.625C64.0626 66.488 63.363 67.1875 62.5001 67.1875C61.6371 67.1875 60.9376 66.488 60.9376 65.625C60.9376 64.7621 61.6371 64.0625 62.5001 64.0625C63.363 64.0625 64.0626 64.7621 64.0626 65.625ZM64.0626 25C64.0626 25.863 63.363 26.5625 62.5001 26.5625C61.6371 26.5625 60.9376 25.863 60.9376 25C60.9376 24.1371 61.6371 23.4375 62.5001 23.4375C63.363 23.4375 64.0626 24.1371 64.0626 25Z" stroke="#002E63" stroke-width="4" stroke-linecap="round" stroke-linejoin="round"/>
</svg>
